<mxfile host="app.diagrams.net" modified="2023-05-29T09:46:44.838Z" agent="Mozilla/5.0 (Macintosh; Intel Mac OS X 10_15_7) AppleWebKit/537.36 (KHTML, like Gecko) Chrome/113.0.0.0 Safari/537.36" etag="h8zI6CKIfKLSTnOoCXMd" version="21.3.3" type="github" pages="3">
  <diagram id="l3sCK_NAAujHn3f9pkKb" name="技术中台">
    <mxGraphModel dx="1194" dy="692" grid="1" gridSize="10" guides="1" tooltips="1" connect="1" arrows="1" fold="1" page="1" pageScale="1" pageWidth="827" pageHeight="1169" math="0" shadow="0">
      <root>
        <mxCell id="0" />
        <mxCell id="1" parent="0" />
        <mxCell id="SzVGWnv48ufma5mJEqG_-40" value="" style="rounded=0;whiteSpace=wrap;html=1;" parent="1" vertex="1">
          <mxGeometry x="10" y="10" width="600" height="600" as="geometry" />
        </mxCell>
        <mxCell id="SzVGWnv48ufma5mJEqG_-18" value="" style="rounded=0;whiteSpace=wrap;html=1;sketch=0;glass=0;labelBackgroundColor=none;" parent="1" vertex="1">
          <mxGeometry x="20" y="71.5" width="580" height="195" as="geometry" />
        </mxCell>
        <mxCell id="Of3mLWJnAgrXcZWGTXzu-8" value="" style="rounded=0;whiteSpace=wrap;html=1;sketch=0;glass=0;labelBackgroundColor=none;" parent="1" vertex="1">
          <mxGeometry x="20" y="280" width="270" height="115" as="geometry" />
        </mxCell>
        <mxCell id="Of3mLWJnAgrXcZWGTXzu-9" value="前端开发框架" style="rounded=0;whiteSpace=wrap;html=1;sketch=0;glass=0;labelBackgroundColor=none;" parent="1" vertex="1">
          <mxGeometry x="110" y="345" width="80" height="25" as="geometry" />
        </mxCell>
        <mxCell id="Of3mLWJnAgrXcZWGTXzu-10" value="后端开发框架" style="rounded=0;whiteSpace=wrap;html=1;sketch=0;glass=0;labelBackgroundColor=none;" parent="1" vertex="1">
          <mxGeometry x="200" y="345" width="80" height="25" as="geometry" />
        </mxCell>
        <mxCell id="Of3mLWJnAgrXcZWGTXzu-11" value="开发框架" style="text;html=1;resizable=0;autosize=1;align=center;verticalAlign=middle;points=[];rounded=0;sketch=0;glass=0;labelBackgroundColor=none;fontStyle=1" parent="1" vertex="1">
          <mxGeometry x="117" y="280" width="70" height="30" as="geometry" />
        </mxCell>
        <mxCell id="Of3mLWJnAgrXcZWGTXzu-12" value="" style="rounded=0;whiteSpace=wrap;html=1;sketch=0;glass=0;labelBackgroundColor=none;" parent="1" vertex="1">
          <mxGeometry x="300" y="280" width="300" height="115" as="geometry" />
        </mxCell>
        <mxCell id="Of3mLWJnAgrXcZWGTXzu-13" value="熔断限流" style="rounded=0;whiteSpace=wrap;html=1;sketch=0;glass=0;labelBackgroundColor=none;" parent="1" vertex="1">
          <mxGeometry x="412" y="307.5" width="76" height="27.5" as="geometry" />
        </mxCell>
        <mxCell id="Of3mLWJnAgrXcZWGTXzu-14" value="负载均衡" style="rounded=0;whiteSpace=wrap;html=1;sketch=0;glass=0;labelBackgroundColor=none;" parent="1" vertex="1">
          <mxGeometry x="505" y="305" width="75" height="30" as="geometry" />
        </mxCell>
        <mxCell id="Of3mLWJnAgrXcZWGTXzu-15" value="链路追踪" style="rounded=0;whiteSpace=wrap;html=1;sketch=0;glass=0;labelBackgroundColor=none;" parent="1" vertex="1">
          <mxGeometry x="320" y="350" width="80" height="30" as="geometry" />
        </mxCell>
        <mxCell id="Of3mLWJnAgrXcZWGTXzu-16" value="配置管理" style="rounded=0;whiteSpace=wrap;html=1;sketch=0;glass=0;labelBackgroundColor=none;" parent="1" vertex="1">
          <mxGeometry x="410" y="350" width="78" height="30" as="geometry" />
        </mxCell>
        <mxCell id="Of3mLWJnAgrXcZWGTXzu-17" value="" style="rounded=0;whiteSpace=wrap;html=1;sketch=0;glass=0;labelBackgroundColor=none;" parent="1" vertex="1">
          <mxGeometry x="20" y="410" width="580" height="80" as="geometry" />
        </mxCell>
        <mxCell id="Of3mLWJnAgrXcZWGTXzu-18" value="数据处理组件" style="text;html=1;resizable=0;autosize=1;align=center;verticalAlign=middle;points=[];rounded=0;sketch=0;hachureGap=4;jiggle=2;fontFamily=Architects Daughter;fontSource=https%3A%2F%2Ffonts.googleapis.com%2Fcss%3Ffamily%3DArchitects%2BDaughter;fontSize=12;glass=0;labelBackgroundColor=none;fontStyle=1" parent="1" vertex="1">
          <mxGeometry x="260" y="415" width="100" height="30" as="geometry" />
        </mxCell>
        <mxCell id="Of3mLWJnAgrXcZWGTXzu-19" value="分布式缓存" style="rounded=0;whiteSpace=wrap;html=1;sketch=0;glass=0;labelBackgroundColor=none;" parent="1" vertex="1">
          <mxGeometry x="30" y="440" width="100" height="30" as="geometry" />
        </mxCell>
        <mxCell id="Of3mLWJnAgrXcZWGTXzu-20" value="消息中间件" style="rounded=0;whiteSpace=wrap;html=1;sketch=0;glass=0;labelBackgroundColor=none;" parent="1" vertex="1">
          <mxGeometry x="150" y="440" width="100" height="30" as="geometry" />
        </mxCell>
        <mxCell id="Of3mLWJnAgrXcZWGTXzu-21" value="数据复制" style="rounded=0;whiteSpace=wrap;html=1;sketch=0;glass=0;labelBackgroundColor=none;" parent="1" vertex="1">
          <mxGeometry x="264" y="440" width="100" height="30" as="geometry" />
        </mxCell>
        <mxCell id="Of3mLWJnAgrXcZWGTXzu-22" value="分布式事务" style="rounded=0;whiteSpace=wrap;html=1;sketch=0;glass=0;labelBackgroundColor=none;" parent="1" vertex="1">
          <mxGeometry x="492.5" y="440" width="100" height="30" as="geometry" />
        </mxCell>
        <mxCell id="Of3mLWJnAgrXcZWGTXzu-24" value="应用日志" style="rounded=0;whiteSpace=wrap;html=1;sketch=0;glass=0;labelBackgroundColor=none;" parent="1" vertex="1">
          <mxGeometry x="380" y="440" width="100" height="30" as="geometry" />
        </mxCell>
        <mxCell id="Of3mLWJnAgrXcZWGTXzu-25" value="服务治理" style="text;html=1;resizable=0;autosize=1;align=center;verticalAlign=middle;points=[];rounded=0;sketch=0;glass=0;labelBackgroundColor=none;fontStyle=1" parent="1" vertex="1">
          <mxGeometry x="412" y="280" width="70" height="30" as="geometry" />
        </mxCell>
        <mxCell id="Of3mLWJnAgrXcZWGTXzu-26" value="注册发现" style="rounded=0;whiteSpace=wrap;html=1;sketch=0;glass=0;labelBackgroundColor=none;" parent="1" vertex="1">
          <mxGeometry x="320" y="307.5" width="76" height="27.5" as="geometry" />
        </mxCell>
        <mxCell id="Of3mLWJnAgrXcZWGTXzu-28" value="数据库" style="rounded=0;whiteSpace=wrap;html=1;sketch=0;glass=0;labelBackgroundColor=none;fontStyle=1" parent="1" vertex="1">
          <mxGeometry x="20" y="500" width="580" height="40" as="geometry" />
        </mxCell>
        <mxCell id="Of3mLWJnAgrXcZWGTXzu-29" value="凯亚云" style="rounded=0;whiteSpace=wrap;html=1;sketch=0;glass=0;labelBackgroundColor=none;fontStyle=1" parent="1" vertex="1">
          <mxGeometry x="22" y="553" width="578" height="45" as="geometry" />
        </mxCell>
        <mxCell id="Of3mLWJnAgrXcZWGTXzu-30" value="服务网关" style="rounded=0;whiteSpace=wrap;html=1;sketch=0;glass=0;labelBackgroundColor=none;" parent="1" vertex="1">
          <mxGeometry x="505" y="350" width="75" height="30" as="geometry" />
        </mxCell>
        <mxCell id="Of3mLWJnAgrXcZWGTXzu-32" value="公共组件" style="rounded=0;whiteSpace=wrap;html=1;sketch=0;glass=0;labelBackgroundColor=none;" parent="1" vertex="1">
          <mxGeometry x="30" y="310" width="70" height="25" as="geometry" />
        </mxCell>
        <mxCell id="Of3mLWJnAgrXcZWGTXzu-34" value="前端脚手架" style="rounded=0;whiteSpace=wrap;html=1;sketch=0;glass=0;labelBackgroundColor=none;" parent="1" vertex="1">
          <mxGeometry x="110" y="310" width="80" height="25" as="geometry" />
        </mxCell>
        <mxCell id="SzVGWnv48ufma5mJEqG_-2" value="后端脚手架" style="rounded=0;whiteSpace=wrap;html=1;sketch=0;glass=0;labelBackgroundColor=none;" parent="1" vertex="1">
          <mxGeometry x="200" y="310" width="80" height="25" as="geometry" />
        </mxCell>
        <mxCell id="SzVGWnv48ufma5mJEqG_-4" value="样式库" style="rounded=0;whiteSpace=wrap;html=1;sketch=0;glass=0;labelBackgroundColor=none;" parent="1" vertex="1">
          <mxGeometry x="30" y="345" width="70" height="25" as="geometry" />
        </mxCell>
        <mxCell id="SzVGWnv48ufma5mJEqG_-5" value="" style="rounded=0;whiteSpace=wrap;html=1;sketch=0;glass=0;labelBackgroundColor=none;" parent="1" vertex="1">
          <mxGeometry x="30" y="84" width="270" height="170" as="geometry" />
        </mxCell>
        <mxCell id="SzVGWnv48ufma5mJEqG_-7" value="统一认证" style="rounded=0;whiteSpace=wrap;html=1;sketch=0;glass=0;labelBackgroundColor=none;" parent="1" vertex="1">
          <mxGeometry x="40" y="104" width="100" height="30" as="geometry" />
        </mxCell>
        <mxCell id="SzVGWnv48ufma5mJEqG_-12" value="租户管理" style="rounded=0;whiteSpace=wrap;html=1;sketch=0;glass=0;labelBackgroundColor=none;" parent="1" vertex="1">
          <mxGeometry x="170" y="104" width="100" height="30" as="geometry" />
        </mxCell>
        <mxCell id="SzVGWnv48ufma5mJEqG_-14" value="单点登录" style="rounded=0;whiteSpace=wrap;html=1;sketch=0;glass=0;labelBackgroundColor=none;" parent="1" vertex="1">
          <mxGeometry x="40" y="200" width="100" height="30" as="geometry" />
        </mxCell>
        <mxCell id="SzVGWnv48ufma5mJEqG_-16" value="权限体系" style="rounded=0;whiteSpace=wrap;html=1;sketch=0;glass=0;labelBackgroundColor=none;" parent="1" vertex="1">
          <mxGeometry x="40" y="153.5" width="100" height="30" as="geometry" />
        </mxCell>
        <mxCell id="SzVGWnv48ufma5mJEqG_-17" value="用户中心" style="text;html=1;resizable=0;autosize=1;align=center;verticalAlign=middle;points=[];rounded=0;sketch=0;glass=0;labelBackgroundColor=none;fontStyle=1" parent="1" vertex="1">
          <mxGeometry x="120" y="80" width="70" height="30" as="geometry" />
        </mxCell>
        <mxCell id="SzVGWnv48ufma5mJEqG_-19" value="" style="rounded=0;whiteSpace=wrap;html=1;sketch=0;glass=0;labelBackgroundColor=none;" parent="1" vertex="1">
          <mxGeometry x="320" y="84" width="250" height="60" as="geometry" />
        </mxCell>
        <mxCell id="SzVGWnv48ufma5mJEqG_-23" value="流程中心" style="text;html=1;resizable=0;autosize=1;align=center;verticalAlign=middle;points=[];rounded=0;sketch=0;glass=0;labelBackgroundColor=none;fontStyle=1" parent="1" vertex="1">
          <mxGeometry x="415" y="80" width="70" height="30" as="geometry" />
        </mxCell>
        <mxCell id="SzVGWnv48ufma5mJEqG_-24" value="流程引擎" style="rounded=0;whiteSpace=wrap;html=1;sketch=0;glass=0;labelBackgroundColor=none;" parent="1" vertex="1">
          <mxGeometry x="330" y="104" width="100" height="30" as="geometry" />
        </mxCell>
        <mxCell id="SzVGWnv48ufma5mJEqG_-25" value="动态表单" style="rounded=0;whiteSpace=wrap;html=1;sketch=0;glass=0;labelBackgroundColor=none;" parent="1" vertex="1">
          <mxGeometry x="450" y="104" width="100" height="30" as="geometry" />
        </mxCell>
        <mxCell id="SzVGWnv48ufma5mJEqG_-26" value="" style="rounded=0;whiteSpace=wrap;html=1;sketch=0;glass=0;labelBackgroundColor=none;" parent="1" vertex="1">
          <mxGeometry x="320" y="157.5" width="250" height="96.5" as="geometry" />
        </mxCell>
        <mxCell id="SzVGWnv48ufma5mJEqG_-27" value="其它业务服务" style="text;html=1;resizable=0;autosize=1;align=center;verticalAlign=middle;points=[];rounded=0;sketch=0;glass=0;labelBackgroundColor=none;fontStyle=1" parent="1" vertex="1">
          <mxGeometry x="400" y="153.5" width="100" height="30" as="geometry" />
        </mxCell>
        <mxCell id="SzVGWnv48ufma5mJEqG_-28" value="配置中心" style="rounded=0;whiteSpace=wrap;html=1;sketch=0;glass=0;labelBackgroundColor=none;" parent="1" vertex="1">
          <mxGeometry x="330" y="177.5" width="100" height="30" as="geometry" />
        </mxCell>
        <mxCell id="SzVGWnv48ufma5mJEqG_-29" value="节假日服务" style="rounded=0;whiteSpace=wrap;html=1;sketch=0;glass=0;labelBackgroundColor=none;" parent="1" vertex="1">
          <mxGeometry x="450" y="177.5" width="100" height="30" as="geometry" />
        </mxCell>
        <mxCell id="SzVGWnv48ufma5mJEqG_-30" value="公式解析引擎" style="rounded=0;whiteSpace=wrap;html=1;sketch=0;glass=0;labelBackgroundColor=none;" parent="1" vertex="1">
          <mxGeometry x="330" y="214" width="100" height="30" as="geometry" />
        </mxCell>
        <mxCell id="SzVGWnv48ufma5mJEqG_-31" value="报表引擎" style="rounded=0;whiteSpace=wrap;html=1;sketch=0;glass=0;labelBackgroundColor=none;" parent="1" vertex="1">
          <mxGeometry x="450" y="214" width="100" height="30" as="geometry" />
        </mxCell>
        <mxCell id="SzVGWnv48ufma5mJEqG_-32" value="接口服务" style="rounded=0;whiteSpace=wrap;html=1;sketch=0;glass=0;labelBackgroundColor=none;" parent="1" vertex="1">
          <mxGeometry x="170" y="200" width="100" height="30" as="geometry" />
        </mxCell>
        <mxCell id="SzVGWnv48ufma5mJEqG_-33" value="用户管理" style="rounded=0;whiteSpace=wrap;html=1;sketch=0;glass=0;labelBackgroundColor=none;" parent="1" vertex="1">
          <mxGeometry x="170" y="153.5" width="100" height="30" as="geometry" />
        </mxCell>
        <mxCell id="SzVGWnv48ufma5mJEqG_-34" value="" style="rounded=0;whiteSpace=wrap;html=1;sketch=0;glass=0;labelBackgroundColor=none;" parent="1" vertex="1">
          <mxGeometry x="20" y="20" width="580" height="40" as="geometry" />
        </mxCell>
        <mxCell id="SzVGWnv48ufma5mJEqG_-35" value="Web应用" style="rounded=0;whiteSpace=wrap;html=1;sketch=0;glass=0;labelBackgroundColor=none;" parent="1" vertex="1">
          <mxGeometry x="117" y="25" width="100" height="30" as="geometry" />
        </mxCell>
        <mxCell id="SzVGWnv48ufma5mJEqG_-36" value="APP" style="rounded=0;whiteSpace=wrap;html=1;sketch=0;glass=0;labelBackgroundColor=none;" parent="1" vertex="1">
          <mxGeometry x="240" y="25" width="100" height="30" as="geometry" />
        </mxCell>
        <mxCell id="SzVGWnv48ufma5mJEqG_-37" value="小程序" style="rounded=0;whiteSpace=wrap;html=1;sketch=0;glass=0;labelBackgroundColor=none;" parent="1" vertex="1">
          <mxGeometry x="364" y="25" width="100" height="30" as="geometry" />
        </mxCell>
        <mxCell id="SzVGWnv48ufma5mJEqG_-38" value="API" style="rounded=0;whiteSpace=wrap;html=1;sketch=0;glass=0;labelBackgroundColor=none;" parent="1" vertex="1">
          <mxGeometry x="488" y="25" width="100" height="30" as="geometry" />
        </mxCell>
        <mxCell id="SzVGWnv48ufma5mJEqG_-39" value="前台应用" style="text;html=1;resizable=0;autosize=1;align=center;verticalAlign=middle;points=[];rounded=0;sketch=0;glass=0;labelBackgroundColor=none;" parent="1" vertex="1">
          <mxGeometry x="30" y="25" width="70" height="30" as="geometry" />
        </mxCell>
      </root>
    </mxGraphModel>
  </diagram>
  <diagram id="A4ItZbjAcyblu4EFFsMP" name="aladdin-architecture">
    <mxGraphModel dx="1426" dy="744" grid="1" gridSize="10" guides="1" tooltips="1" connect="1" arrows="1" fold="1" page="1" pageScale="1" pageWidth="827" pageHeight="1169" math="0" shadow="1">
      <root>
        <mxCell id="0" />
        <mxCell id="1" parent="0" />
        <mxCell id="NfwT-5guAlgeJ3il_cm0-50" value="" style="rounded=0;whiteSpace=wrap;html=1;sketch=0;fontSize=13;labelBorderColor=none;fontColor=none;noLabel=1;fillColor=none;" parent="1" vertex="1">
          <mxGeometry x="40" y="40" width="990" height="710" as="geometry" />
        </mxCell>
        <mxCell id="1eKzZbrl_J8bp0zeSn-3-1" value="" style="rounded=0;whiteSpace=wrap;html=1;fillColor=#f8cecc;strokeColor=#b85450;" parent="1" vertex="1">
          <mxGeometry x="860" y="55" width="140" height="675" as="geometry" />
        </mxCell>
        <mxCell id="ne6_LfQAyheU7745YuGY-1" value="技术组件" style="rounded=0;whiteSpace=wrap;html=1;fontSize=14;fillColor=#dae8fc;strokeColor=#6c8ebf;" parent="1" vertex="1">
          <mxGeometry x="59" y="448.5" width="120" height="124.5" as="geometry" />
        </mxCell>
        <mxCell id="ne6_LfQAyheU7745YuGY-2" value="" style="rounded=0;whiteSpace=wrap;html=1;fontSize=14;fillColor=#dae8fc;strokeColor=#6c8ebf;" parent="1" vertex="1">
          <mxGeometry x="199" y="448.5" width="640" height="124.5" as="geometry" />
        </mxCell>
        <mxCell id="ne6_LfQAyheU7745YuGY-3" value="基础设施" style="rounded=0;whiteSpace=wrap;html=1;fontSize=14;fillColor=#f5f5f5;fontColor=#333333;strokeColor=#666666;" parent="1" vertex="1">
          <mxGeometry x="58" y="589.5" width="120" height="140.5" as="geometry" />
        </mxCell>
        <mxCell id="ne6_LfQAyheU7745YuGY-4" value="" style="rounded=0;whiteSpace=wrap;html=1;fontSize=14;fillColor=#f5f5f5;strokeColor=#666666;fontColor=#333333;" parent="1" vertex="1">
          <mxGeometry x="199" y="592.5" width="640" height="60.5" as="geometry" />
        </mxCell>
        <mxCell id="ne6_LfQAyheU7745YuGY-5" value="业务组件" style="rounded=0;whiteSpace=wrap;html=1;fontSize=14;fillColor=#e1d5e7;strokeColor=#9673a6;" parent="1" vertex="1">
          <mxGeometry x="57" y="295" width="123" height="135" as="geometry" />
        </mxCell>
        <mxCell id="ne6_LfQAyheU7745YuGY-6" value="" style="rounded=0;whiteSpace=wrap;html=1;fontSize=14;fillColor=#e1d5e7;strokeColor=#9673a6;" parent="1" vertex="1">
          <mxGeometry x="200" y="295" width="640" height="135" as="geometry" />
        </mxCell>
        <mxCell id="ne6_LfQAyheU7745YuGY-7" value="" style="rounded=0;whiteSpace=wrap;html=1;fontSize=14;fillColor=#fff2cc;strokeColor=#d6b656;" parent="1" vertex="1">
          <mxGeometry x="198" y="55" width="641" height="70" as="geometry" />
        </mxCell>
        <mxCell id="ne6_LfQAyheU7745YuGY-9" value="前台应用" style="rounded=0;whiteSpace=wrap;html=1;fontSize=14;fillColor=#fff2cc;strokeColor=#d6b656;" parent="1" vertex="1">
          <mxGeometry x="58" y="55" width="121" height="70" as="geometry" />
        </mxCell>
        <mxCell id="ne6_LfQAyheU7745YuGY-18" value="熔断限流" style="rounded=0;whiteSpace=wrap;html=1;fontFamily=Helvetica;fontSize=14;" parent="1" vertex="1">
          <mxGeometry x="459" y="221" width="100" height="40" as="geometry" />
        </mxCell>
        <mxCell id="NfwT-5guAlgeJ3il_cm0-1" value="Web应用" style="rounded=0;whiteSpace=wrap;html=1;fontFamily=Helvetica;fontSize=14;" parent="1" vertex="1">
          <mxGeometry x="209" y="70" width="100" height="40" as="geometry" />
        </mxCell>
        <mxCell id="NfwT-5guAlgeJ3il_cm0-2" value="H5应用" style="rounded=0;whiteSpace=wrap;html=1;fontFamily=Helvetica;fontSize=14;fontStyle=0" parent="1" vertex="1">
          <mxGeometry x="324" y="70" width="100" height="40" as="geometry" />
        </mxCell>
        <mxCell id="NfwT-5guAlgeJ3il_cm0-3" value="APP" style="rounded=0;whiteSpace=wrap;html=1;fontFamily=Helvetica;fontSize=14;fontStyle=0" parent="1" vertex="1">
          <mxGeometry x="443" y="70" width="100" height="40" as="geometry" />
        </mxCell>
        <mxCell id="NfwT-5guAlgeJ3il_cm0-4" value="第三方应用" style="rounded=0;whiteSpace=wrap;html=1;fontFamily=Helvetica;fontSize=14;fontStyle=0" parent="1" vertex="1">
          <mxGeometry x="689" y="70" width="100" height="40" as="geometry" />
        </mxCell>
        <mxCell id="NfwT-5guAlgeJ3il_cm0-10" value="服务路由" style="rounded=0;whiteSpace=wrap;html=1;fontSize=14;fillColor=#ffe6cc;strokeColor=#d79b00;" parent="1" vertex="1">
          <mxGeometry x="198" y="211" width="641" height="70" as="geometry" />
        </mxCell>
        <mxCell id="NfwT-5guAlgeJ3il_cm0-13" value="服务注册" style="rounded=0;whiteSpace=wrap;html=1;fontFamily=Helvetica;fontSize=14;fontStyle=0" parent="1" vertex="1">
          <mxGeometry x="880" y="110" width="100" height="40" as="geometry" />
        </mxCell>
        <mxCell id="NfwT-5guAlgeJ3il_cm0-14" value="服务鉴权" style="rounded=0;whiteSpace=wrap;html=1;fontFamily=Helvetica;fontSize=14;fontStyle=0" parent="1" vertex="1">
          <mxGeometry x="880" y="181" width="100" height="40" as="geometry" />
        </mxCell>
        <mxCell id="NfwT-5guAlgeJ3il_cm0-15" value="网关层" style="rounded=0;whiteSpace=wrap;html=1;fontSize=14;fillColor=#ffe6cc;strokeColor=#d79b00;" parent="1" vertex="1">
          <mxGeometry x="58" y="211" width="121" height="70" as="geometry" />
        </mxCell>
        <mxCell id="NfwT-5guAlgeJ3il_cm0-19" value="凯亚云平台" style="rounded=0;whiteSpace=wrap;html=1;fontFamily=Helvetica;fontSize=14;fillColor=#f5f5f5;strokeColor=#666666;fontColor=#333333;" parent="1" vertex="1">
          <mxGeometry x="200" y="670" width="639" height="60" as="geometry" />
        </mxCell>
        <mxCell id="NfwT-5guAlgeJ3il_cm0-22" value="用户中心" style="rounded=0;whiteSpace=wrap;html=1;fontFamily=Helvetica;fontSize=14;" parent="1" vertex="1">
          <mxGeometry x="241" y="312" width="110" height="40" as="geometry" />
        </mxCell>
        <mxCell id="NfwT-5guAlgeJ3il_cm0-23" value="航班服务" style="rounded=0;whiteSpace=wrap;html=1;fontFamily=Helvetica;fontSize=14;" parent="1" vertex="1">
          <mxGeometry x="391" y="312" width="110" height="40" as="geometry" />
        </mxCell>
        <mxCell id="NfwT-5guAlgeJ3il_cm0-24" value="运行管理" style="rounded=0;whiteSpace=wrap;html=1;fontFamily=Helvetica;fontSize=14;" parent="1" vertex="1">
          <mxGeometry x="701" y="372" width="100" height="40" as="geometry" />
        </mxCell>
        <mxCell id="NfwT-5guAlgeJ3il_cm0-25" value="安全管理" style="rounded=0;whiteSpace=wrap;html=1;fontFamily=Helvetica;fontSize=14;" parent="1" vertex="1">
          <mxGeometry x="553" y="372" width="100" height="40" as="geometry" />
        </mxCell>
        <mxCell id="NfwT-5guAlgeJ3il_cm0-26" value="智慧地服" style="rounded=0;whiteSpace=wrap;html=1;fontFamily=Helvetica;fontSize=14;" parent="1" vertex="1">
          <mxGeometry x="391" y="372" width="110" height="40" as="geometry" />
        </mxCell>
        <mxCell id="NfwT-5guAlgeJ3il_cm0-27" value="货邮行服务" style="rounded=0;whiteSpace=wrap;html=1;fontFamily=Helvetica;fontSize=14;" parent="1" vertex="1">
          <mxGeometry x="553" y="312" width="100" height="40" as="geometry" />
        </mxCell>
        <mxCell id="NfwT-5guAlgeJ3il_cm0-28" value="结算服务" style="rounded=0;whiteSpace=wrap;html=1;fontFamily=Helvetica;fontSize=14;" parent="1" vertex="1">
          <mxGeometry x="701" y="312" width="100" height="40" as="geometry" />
        </mxCell>
        <mxCell id="NfwT-5guAlgeJ3il_cm0-29" value="智慧办公" style="rounded=0;whiteSpace=wrap;html=1;fontFamily=Helvetica;fontSize=14;" parent="1" vertex="1">
          <mxGeometry x="241" y="372" width="110" height="40" as="geometry" />
        </mxCell>
        <mxCell id="NfwT-5guAlgeJ3il_cm0-30" value="开发框架" style="rounded=0;whiteSpace=wrap;html=1;fontFamily=Helvetica;fontSize=14;" parent="1" vertex="1">
          <mxGeometry x="239" y="458.5" width="110" height="44.5" as="geometry" />
        </mxCell>
        <mxCell id="NfwT-5guAlgeJ3il_cm0-31" value="公共组件" style="rounded=0;whiteSpace=wrap;html=1;fontFamily=Helvetica;fontSize=14;" parent="1" vertex="1">
          <mxGeometry x="391" y="458.5" width="108" height="44.5" as="geometry" />
        </mxCell>
        <mxCell id="NfwT-5guAlgeJ3il_cm0-32" value="消息中间件" style="rounded=0;whiteSpace=wrap;html=1;fontFamily=Helvetica;fontSize=14;" parent="1" vertex="1">
          <mxGeometry x="699" y="458.5" width="110" height="40" as="geometry" />
        </mxCell>
        <mxCell id="NfwT-5guAlgeJ3il_cm0-33" value="分布式缓存" style="rounded=0;whiteSpace=wrap;html=1;fontFamily=Helvetica;fontSize=14;" parent="1" vertex="1">
          <mxGeometry x="551" y="458.5" width="108" height="44.5" as="geometry" />
        </mxCell>
        <mxCell id="NfwT-5guAlgeJ3il_cm0-34" value="分布式事务" style="rounded=0;whiteSpace=wrap;html=1;fontFamily=Helvetica;fontSize=14;" parent="1" vertex="1">
          <mxGeometry x="699" y="523" width="110" height="40" as="geometry" />
        </mxCell>
        <mxCell id="NfwT-5guAlgeJ3il_cm0-35" value="应用日志" style="rounded=0;whiteSpace=wrap;html=1;fontFamily=Helvetica;fontSize=14;" parent="1" vertex="1">
          <mxGeometry x="239" y="523" width="110" height="40" as="geometry" />
        </mxCell>
        <mxCell id="NfwT-5guAlgeJ3il_cm0-36" value="搜索引擎" style="rounded=0;whiteSpace=wrap;html=1;fontFamily=Helvetica;fontSize=14;" parent="1" vertex="1">
          <mxGeometry x="391" y="523" width="108" height="40" as="geometry" />
        </mxCell>
        <mxCell id="NfwT-5guAlgeJ3il_cm0-37" value="配置管理" style="rounded=0;whiteSpace=wrap;html=1;fontFamily=Helvetica;fontSize=14;" parent="1" vertex="1">
          <mxGeometry x="551" y="523" width="108" height="40" as="geometry" />
        </mxCell>
        <mxCell id="NfwT-5guAlgeJ3il_cm0-38" value="降级限流" style="rounded=0;whiteSpace=wrap;html=1;fontFamily=Helvetica;fontSize=14;" parent="1" vertex="1">
          <mxGeometry x="880" y="255" width="100" height="40" as="geometry" />
        </mxCell>
        <mxCell id="NfwT-5guAlgeJ3il_cm0-39" value="负载均衡" style="rounded=0;whiteSpace=wrap;html=1;fontSize=14;fillColor=#d5e8d4;strokeColor=#82b366;" parent="1" vertex="1">
          <mxGeometry x="58" y="138" width="121" height="60" as="geometry" />
        </mxCell>
        <mxCell id="NfwT-5guAlgeJ3il_cm0-40" value="Nginx 负载均衡" style="rounded=0;whiteSpace=wrap;html=1;fontSize=14;fillColor=#d5e8d4;strokeColor=#82b366;" parent="1" vertex="1">
          <mxGeometry x="198" y="138" width="641" height="60" as="geometry" />
        </mxCell>
        <mxCell id="NfwT-5guAlgeJ3il_cm0-42" value="大屏" style="rounded=0;whiteSpace=wrap;html=1;fontFamily=Helvetica;fontSize=14;fontStyle=0" parent="1" vertex="1">
          <mxGeometry x="569" y="70" width="100" height="40" as="geometry" />
        </mxCell>
        <mxCell id="NfwT-5guAlgeJ3il_cm0-43" value="关系型数据库" style="rounded=0;whiteSpace=wrap;html=1;fontFamily=Helvetica;fontSize=14;" parent="1" vertex="1">
          <mxGeometry x="228" y="602.75" width="190" height="40.25" as="geometry" />
        </mxCell>
        <mxCell id="NfwT-5guAlgeJ3il_cm0-44" value="NoSQL数据库" style="rounded=0;whiteSpace=wrap;html=1;fontFamily=Helvetica;fontSize=14;" parent="1" vertex="1">
          <mxGeometry x="439" y="602.75" width="188" height="40.25" as="geometry" />
        </mxCell>
        <mxCell id="1eKzZbrl_J8bp0zeSn-3-3" value="服务治理" style="text;html=1;resizable=0;autosize=1;align=center;verticalAlign=middle;points=[];fillColor=none;strokeColor=none;rounded=0;fontSize=15;" parent="1" vertex="1">
          <mxGeometry x="900" y="65" width="80" height="30" as="geometry" />
        </mxCell>
        <mxCell id="1eKzZbrl_J8bp0zeSn-3-4" value="链路追踪" style="rounded=0;whiteSpace=wrap;html=1;fontFamily=Helvetica;fontSize=14;" parent="1" vertex="1">
          <mxGeometry x="880" y="330" width="100" height="40" as="geometry" />
        </mxCell>
        <mxCell id="1eKzZbrl_J8bp0zeSn-3-5" value="服务监控" style="rounded=0;whiteSpace=wrap;html=1;fontFamily=Helvetica;fontSize=14;" parent="1" vertex="1">
          <mxGeometry x="880" y="400" width="100" height="40" as="geometry" />
        </mxCell>
        <mxCell id="jVKXvY380oyWIEy-MwUw-1" value="文件存储" style="rounded=0;whiteSpace=wrap;html=1;fontFamily=Helvetica;fontSize=14;" vertex="1" parent="1">
          <mxGeometry x="639" y="602.63" width="171" height="40.25" as="geometry" />
        </mxCell>
      </root>
    </mxGraphModel>
  </diagram>
  <diagram id="2A9s9jn6oW4pRk4tPPmA" name="swit-architecture">
    <mxGraphModel dx="1426" dy="744" grid="1" gridSize="10" guides="1" tooltips="1" connect="1" arrows="1" fold="1" page="1" pageScale="1" pageWidth="827" pageHeight="1169" math="0" shadow="0">
      <root>
        <mxCell id="0" />
        <mxCell id="1" parent="0" />
        <mxCell id="vCNUt6E4ToNHGfemQ_sb-1" value="" style="rounded=0;whiteSpace=wrap;html=1;fillColor=none;" vertex="1" parent="1">
          <mxGeometry x="10" y="50" width="650" height="440" as="geometry" />
        </mxCell>
        <mxCell id="vCNUt6E4ToNHGfemQ_sb-2" value="凯亚云平台" style="rounded=0;whiteSpace=wrap;html=1;fillColor=#f5f5f5;strokeColor=#666666;fontColor=#333333;" vertex="1" parent="1">
          <mxGeometry x="170" y="400" width="470" height="70" as="geometry" />
        </mxCell>
        <mxCell id="vCNUt6E4ToNHGfemQ_sb-3" value="" style="rounded=0;whiteSpace=wrap;html=1;fillColor=#f8cecc;strokeColor=#b85450;" vertex="1" parent="1">
          <mxGeometry x="170" y="320" width="470" height="60" as="geometry" />
        </mxCell>
        <mxCell id="vCNUt6E4ToNHGfemQ_sb-4" value="MySQL" style="rounded=0;whiteSpace=wrap;html=1;" vertex="1" parent="1">
          <mxGeometry x="230" y="330" width="110" height="40" as="geometry" />
        </mxCell>
        <mxCell id="vCNUt6E4ToNHGfemQ_sb-5" value="Redis" style="rounded=0;whiteSpace=wrap;html=1;" vertex="1" parent="1">
          <mxGeometry x="360" y="330" width="110" height="40" as="geometry" />
        </mxCell>
        <mxCell id="vCNUt6E4ToNHGfemQ_sb-6" value="" style="rounded=0;whiteSpace=wrap;html=1;fillColor=#d5e8d4;strokeColor=#82b366;" vertex="1" parent="1">
          <mxGeometry x="170" y="70" width="470" height="60" as="geometry" />
        </mxCell>
        <mxCell id="vCNUt6E4ToNHGfemQ_sb-7" value="ReactJS" style="rounded=0;whiteSpace=wrap;html=1;" vertex="1" parent="1">
          <mxGeometry x="200" y="80" width="110" height="40" as="geometry" />
        </mxCell>
        <mxCell id="vCNUt6E4ToNHGfemQ_sb-8" value="APP" style="rounded=0;whiteSpace=wrap;html=1;" vertex="1" parent="1">
          <mxGeometry x="340" y="80" width="110" height="40" as="geometry" />
        </mxCell>
        <mxCell id="vCNUt6E4ToNHGfemQ_sb-9" value="API" style="rounded=0;whiteSpace=wrap;html=1;" vertex="1" parent="1">
          <mxGeometry x="480" y="80" width="110" height="40" as="geometry" />
        </mxCell>
        <mxCell id="vCNUt6E4ToNHGfemQ_sb-10" value="" style="rounded=0;whiteSpace=wrap;html=1;fillColor=#dae8fc;strokeColor=#6c8ebf;" vertex="1" parent="1">
          <mxGeometry x="170" y="150" width="470" height="150" as="geometry" />
        </mxCell>
        <mxCell id="vCNUt6E4ToNHGfemQ_sb-11" value="SpringBoot" style="rounded=0;whiteSpace=wrap;html=1;" vertex="1" parent="1">
          <mxGeometry x="200" y="170" width="110" height="40" as="geometry" />
        </mxCell>
        <mxCell id="vCNUt6E4ToNHGfemQ_sb-12" value="SpringCore" style="rounded=0;whiteSpace=wrap;html=1;" vertex="1" parent="1">
          <mxGeometry x="340" y="170" width="110" height="40" as="geometry" />
        </mxCell>
        <mxCell id="vCNUt6E4ToNHGfemQ_sb-13" value="Mybatis" style="rounded=0;whiteSpace=wrap;html=1;" vertex="1" parent="1">
          <mxGeometry x="480" y="170" width="110" height="40" as="geometry" />
        </mxCell>
        <mxCell id="vCNUt6E4ToNHGfemQ_sb-14" value="JetCache" style="rounded=0;whiteSpace=wrap;html=1;" vertex="1" parent="1">
          <mxGeometry x="200" y="230" width="110" height="40" as="geometry" />
        </mxCell>
        <mxCell id="vCNUt6E4ToNHGfemQ_sb-15" value="OAuth2" style="rounded=0;whiteSpace=wrap;html=1;" vertex="1" parent="1">
          <mxGeometry x="340" y="230" width="110" height="40" as="geometry" />
        </mxCell>
        <mxCell id="vCNUt6E4ToNHGfemQ_sb-16" value="MinIO" style="rounded=0;whiteSpace=wrap;html=1;" vertex="1" parent="1">
          <mxGeometry x="490" y="330" width="110" height="40" as="geometry" />
        </mxCell>
        <mxCell id="vCNUt6E4ToNHGfemQ_sb-17" value="表现层" style="rounded=0;whiteSpace=wrap;html=1;fillColor=#d5e8d4;strokeColor=#82b366;" vertex="1" parent="1">
          <mxGeometry x="30" y="70" width="120" height="60" as="geometry" />
        </mxCell>
        <mxCell id="vCNUt6E4ToNHGfemQ_sb-18" value="服务层" style="rounded=0;whiteSpace=wrap;html=1;fillColor=#dae8fc;strokeColor=#6c8ebf;" vertex="1" parent="1">
          <mxGeometry x="30" y="150" width="120" height="150" as="geometry" />
        </mxCell>
        <mxCell id="vCNUt6E4ToNHGfemQ_sb-19" value="存储层" style="rounded=0;whiteSpace=wrap;html=1;fillColor=#f8cecc;strokeColor=#b85450;" vertex="1" parent="1">
          <mxGeometry x="30" y="320" width="120" height="60" as="geometry" />
        </mxCell>
        <mxCell id="vCNUt6E4ToNHGfemQ_sb-20" value="基础设施层" style="rounded=0;whiteSpace=wrap;html=1;fillColor=#f5f5f5;strokeColor=#666666;fontColor=#333333;" vertex="1" parent="1">
          <mxGeometry x="30" y="400" width="120" height="70" as="geometry" />
        </mxCell>
        <mxCell id="vCNUt6E4ToNHGfemQ_sb-21" value="Quartz" style="rounded=0;whiteSpace=wrap;html=1;" vertex="1" parent="1">
          <mxGeometry x="480" y="230" width="110" height="40" as="geometry" />
        </mxCell>
      </root>
    </mxGraphModel>
  </diagram>
</mxfile>
